# File created by Blade
# Date/Time:  Tue Jan 27 18:09:18 2015
#---------------------------------------------------------
:version 1.10
:name HOM
:units
  mass 1.0
  length 1.000000
  angle deg
:documentation
     Acclaim Skeleton File
:root
   axis xyz
   order TX TY TZ RX RY RZ
   position 0.000000 0.000000 0.000000
   orientation 0 0 0
:bonedata
   begin
      id 1
      name Spine_dum
      direction 0.000000 1.000000 0.000000
      length 5.195262
      axis 0.0 0.0 0.0 xyz
   end
   begin
      id 2
      name LeftUpLeg_dum
      direction 1.000000 0.000000 0.000000
      length 3.351363
      axis 0.0 0.0 0.0 xyz
   end
   begin
      id 3
      name RightUpLeg_dum
      direction -1.000000 0.000000 0.000000
      length 3.351363
      axis 0.0 0.0 0.0 xyz
   end
   begin
      id 4
      name Spine
      direction 0.000000 1.000000 0.000000
      length 0.000000
      axis 0.0 0.0 0.0 xyz
      dof rx ry rz
   end
   begin
      id 5
      name Spine_dum1
      direction 0.000000 1.000000 0.000000
      length 15.653875
      axis 0.0 0.0 0.0 xyz
   end
   begin
      id 6
      name Spine_dum2
      direction 0.000000 1.000000 0.000000
      length 10.329768
      axis 0.0 0.0 0.0 xyz
   end
   begin
      id 7
      name Spine_dum3
      direction 0.000000 1.000000 0.000000
      length 10.329768
      axis 0.0 0.0 0.0 xyz
   end
   begin
      id 8
      name Head
      direction 0.000000 1.000000 0.000000
      length 4.527550
      axis 0.0 0.0 0.0 xyz
      dof rx ry rz
   end
   begin
      id 9
      name LeftShoulder
      direction 1.000000 0.000000 0.000000
      length 6.996006
      axis 0.0 0.0 -90.0 xyz
      dof rx ry rz
   end
   begin
      id 10
      name LeftArm
      direction 1.000000 0.000000 0.000000
      length 10.209302
      axis 0.0 0.0 -90.0 xyz
      dof rx ry rz
   end
   begin
      id 11
      name LeftForeArm
      direction 1.000000 0.000000 0.000000
      length 8.563163
      axis 0.0 0.0 -90.0 xyz
      dof ry rz rx
   end
   begin
      id 12
      name LeftHand
      direction 0.000000 0.000000 0.000000
      length 0.000000
      axis 0.0 0.0 -90.0 xyz
      dof rx ry rz
   end
   begin
      id 13
      name LeftHand_dum1
      direction 0.000000 0.000000 0.000000
      length 0.000000
      axis 0.0 0.0 -90.0 xyz
   end
   begin
      id 14
      name LeftHand_dum2
      direction 1.000000 0.000000 0.000000
      length 3.937000
      axis 0.0 0.0 -90.0 xyz
   end
   begin
      id 15
      name LeftHandThumb1
      direction 0.000000 0.000000 1.000000
      length 3.937000
      axis 0.0 0.0 -90.0 xyz
      dof rx rz ry
   end
   begin
      id 16
      name RightShoulder
      direction -1.000000 0.000000 0.000000
      length 6.996006
      axis 0.0 0.0 90.0 xyz
      dof rx ry rz
   end
   begin
      id 17
      name RightArm
      direction -1.000000 0.000000 0.000000
      length 10.209302
      axis 0.0 0.0 90.0 xyz
      dof rx ry rz
   end
   begin
      id 18
      name RightForeArm
      direction -1.000000 0.000000 0.000000
      length 8.563163
      axis 0.0 0.0 90.0 xyz
      dof ry rz rx
   end
   begin
      id 19
      name RightHand
      direction 0.000000 0.000000 0.000000
      length 0.000000
      axis 0.0 0.0 90.0 xyz
      dof rx ry rz
   end
   begin
      id 20
      name RightHand_dum1
      direction 0.000000 0.000000 0.000000
      length 0.000000
      axis 0.0 0.0 90.0 xyz
   end
   begin
      id 21
      name RightHand_dum2
      direction -1.000000 0.000000 0.000000
      length 3.937000
      axis 0.0 0.0 90.0 xyz
   end
   begin
      id 22
      name RightHandThumb1
      direction 0.000000 0.000000 1.000000
      length 3.937000
      axis 0.0 0.0 90.0 xyz
      dof rx rz ry
   end
   begin
      id 23
      name LeftUpLeg
      direction 0.000000 -1.000000 0.000000
      length 16.346831
      axis 0.0 0.0 0.0 xyz
      dof rx ry rz
   end
   begin
      id 24
      name LeftLeg
      direction 0.000000 -1.000000 0.000000
      length 13.959795
      axis 0.0 0.0 0.0 xyz
      dof rx ry rz
   end
   begin
      id 25
      name LeftFoot
      direction 0.000000 -0.258819 0.965926
      length 5.165550
      axis 15.0 0.0 0.0 xyz
      dof rx ry rz
   end
   begin
      id 26
      name LeftToeBase
      direction 0.000000 0.000000 1.000000
      length 2.952750
      axis 0.0 0.0 0.0 xyz
      dof rx ry rz
   end
   begin
      id 27
      name RightUpLeg
      direction 0.000000 -1.000000 0.000000
      length 16.346831
      axis 0.0 0.0 0.0 xyz
      dof rx ry rz
   end
   begin
      id 28
      name RightLeg
      direction 0.000000 -1.000000 0.000000
      length 13.959795
      axis 0.0 0.0 0.0 xyz
      dof rx ry rz
   end
   begin
      id 29
      name RightFoot
      direction 0.000000 -0.258819 0.965926
      length 5.165550
      axis 15.0 0.0 0.0 xyz
      dof rx ry rz
   end
   begin
      id 30
      name RightToeBase
      direction 0.000000 0.000000 1.000000
      length 2.952750
      axis 0.0 0.0 0.0 xyz
      dof rx ry rz
   end
:hierarchy
   begin
      root Spine_dum LeftUpLeg_dum RightUpLeg_dum
      Spine_dum Spine
      LeftUpLeg_dum LeftUpLeg
      RightUpLeg_dum RightUpLeg
      Spine Spine_dum1 Spine_dum2 Spine_dum3
      Spine_dum1 Head
      Spine_dum2 LeftShoulder
      Spine_dum3 RightShoulder
      LeftShoulder LeftArm
      LeftArm LeftForeArm
      LeftForeArm LeftHand
      LeftHand LeftHand_dum1 LeftHand_dum2
      LeftHand_dum1 LeftHandThumb1
      RightShoulder RightArm
      RightArm RightForeArm
      RightForeArm RightHand
      RightHand RightHand_dum1 RightHand_dum2
      RightHand_dum1 RightHandThumb1
      LeftUpLeg LeftLeg
      LeftLeg LeftFoot
      LeftFoot LeftToeBase
      RightUpLeg RightLeg
      RightLeg RightFoot
      RightFoot RightToeBase
   end

# File created by Blade
# Date/Time:  Tue Jan 27 18:09:10 2015
# Frame Rate: 120.000 fps
#------------------------------------------------------
:FULLY-SPECIFIED
:DEGREES
1027
root -1.402325 31.851116 -6.580028 5.888189 16.716903 4.442459
Spine -7.834947 -0.119283 -3.287074
Head -1.472501 -16.977086 4.185416
LeftShoulder -9.449896 17.211893 5.067569
LeftArm 26.727319 40.263734 -68.984132
LeftForeArm -2.913894 -0.000000 14.778111
LeftHand -10.797834 -0.000000 -5.124634
LeftHandThumb1 -26.253704 0.000000 33.147579
RightShoulder 2.968559 30.187288 -32.813219
RightArm 52.756344 24.780868 102.199774
RightForeArm 22.946066 -0.000000 102.094068
RightHand -6.854010 -0.000000 7.213413
RightHandThumb1 -24.326973 -0.000000 -32.862282
LeftUpLeg -2.514399 -7.000928 -1.217434
LeftLeg 1.490283 -0.000000 -0.000000
LeftFoot -15.544417 13.512073 -24.263707
LeftToeBase 8.637938 -0.000000 -0.000000
RightUpLeg 3.291704 -10.205542 -4.065341
RightLeg -3.544779 -0.000000 0.000000
RightFoot -16.792965 -17.346042 10.731315
RightToeBase 5.308647 -0.000000 -0.000000
1028
root -1.402681 31.851305 -6.582294 5.884868 16.724792 4.442429
Spine -7.832573 -0.144799 -3.274438
Head -1.463237 -16.973938 4.123012
LeftShoulder -9.448611 17.218367 5.070686
LeftArm 26.728811 40.274901 -68.983978
LeftForeArm -2.937360 -0.000000 14.769852
LeftHand -10.802763 -0.000000 -5.092637
LeftHandThumb1 -26.253704 0.000000 33.147579
RightShoulder 2.983429 30.202072 -32.803204
RightArm 52.710175 24.762903 102.192096
RightForeArm 22.931612 0.000000 102.075393
RightHand -6.804175 0.000000 7.218844
RightHandThumb1 -24.326973 -0.000000 -32.862282
LeftUpLeg -2.518980 -7.001091 -1.215181
LeftLeg 1.497121 -0.000000 -0.000000
LeftFoot -15.546359 13.495636 -24.255711
LeftToeBase 8.672986 -0.000000 -0.000000
RightUpLeg 3.289236 -10.212555 -4.065111
RightLeg -3.538950 -0.000000 0.000000
RightFoot -16.799626 -17.338618 10.739285
RightToeBase 5.330916 -0.000000 -0.000000
1029
root -1.402941 31.851607 -6.584973 5.885124 16.731837 4.447590
Spine -7.830618 -0.160779 -3.268670
Head -1.461792 -16.981955 4.064789
LeftShoulder -9.445376 17.210278 5.078426
LeftArm 26.722006 40.287788 -68.994934
LeftForeArm -2.931347 0.000000 14.747944
LeftHand -10.808745 -0.000000 -5.104901
LeftHandThumb1 -26.253704 0.000000 33.147579
RightShoulder 2.987023 30.202644 -32.803072
RightArm 52.678927 24.742846 102.192957
RightForeArm 22.937948 0.000000 102.065291
RightHand -6.823090 -0.000000 7.203532
RightHandThumb1 -24.326973 -0.000000 -32.862282
LeftUpLeg -2.524324 -7.001070 -1.221754
LeftLeg 1.498759 -0.000000 -0.000000
LeftFoot -15.526478 13.506808 -24.231713
LeftToeBase 8.627690 -0.000000 -0.000000
RightUpLeg 3.288082 -10.208030 -4.069494
RightLeg -3.542321 -0.000000 0.000000
RightFoot -16.792884 -17.360715 10.730500
RightToeBase 5.305883 -0.000000 -0.000000
1030
root -1.403605 31.852086 -6.586711 5.882138 16.734811 4.451712
Spine -7.828573 -0.178315 -3.263243
Head -1.453957 -16.976560 4.005753
LeftShoulder -9.446947 17.214336 5.080769
LeftArm 26.709403 40.272969 -69.011628
LeftForeArm -2.893911 -0.000000 14.737502
LeftHand -10.811382 0.000000 -5.093732
LeftHandThumb1 -26.253704 0.000000 33.147579
RightShoulder 2.990541 30.186247 -32.803519
RightArm 52.654620 24.725521 102.165212
RightForeArm 22.942685 0.000000 102.040554
RightHand -6.777513 -0.000000 7.221542
RightHandThumb1 -24.326973 -0.000000 -32.862282
LeftUpLeg -2.523924 -6.976740 -1.225206
LeftLeg 1.497523 -0.000000 -0.000000
LeftFoot -15.506226 13.477459 -24.242283
LeftToeBase 8.661559 -0.000000 -0.000000
RightUpLeg 3.294044 -10.192662 -4.073169
RightLeg -3.552045 -0.000000 0.000000
RightFoot -16.785012 -17.375558 10.727607
RightToeBase 5.323798 -0.000000 -0.000000
1031
root -1.404226 31.852413 -6.588880 5.880275 16.740265 4.455460
Spine -7.828259 -0.202616 -3.257930
Head -1.444093 -16.951718 3.954644
LeftShoulder -9.452092 17.199316 5.088223
LeftArm 26.694760 40.303673 -69.012262
LeftForeArm -2.935201 0.000000 14.726210
LeftHand -10.794188 -0.000000 -5.117403
LeftHandThumb1 -26.253704 0.000000 33.147579
RightShoulder 3.009665 30.201870 -32.788759
RightArm 52.610083 24.715995 102.147159
RightForeArm 22.930319 -0.000000 102.025822
RightHand -6.756364 0.000000 7.201312
RightHandThumb1 -24.326973 -0.000000 -32.862282
LeftUpLeg -2.526084 -6.967494 -1.227828
LeftLeg 1.499241 -0.000000 -0.000000
LeftFoot -15.497580 13.452969 -24.266514
LeftToeBase 8.676759 -0.000000 -0.000000
RightUpLeg 3.291360 -10.196621 -4.076278
RightLeg -3.546060 -0.000000 0.000000
RightFoot -16.793017 -17.375595 10.751854
RightToeBase 5.318465 -0.000000 -0.000000
1032
root -1.405014 31.852879 -6.590949 5.871305 16.744600 4.453043
Spine -7.823078 -0.212081 -3.247102
Head -1.434582 -16.916025 3.907701
LeftShoulder -9.453344 17.221104 5.086035
LeftArm 26.727714 40.304299 -68.991396
LeftForeArm -2.937751 -0.000000 14.708704
LeftHand -10.776920 -0.000000 -5.097818
LeftHandThumb1 -26.253704 0.000000 33.147579
RightShoulder 3.022788 30.200632 -32.790069
RightArm 52.578320 24.718538 102.147890
RightForeArm 22.935572 0.000000 102.018968
RightHand -6.765445 -0.000000 7.164078
RightHandThumb1 -24.326973 -0.000000 -32.862282
LeftUpLeg -2.519407 -6.966819 -1.226879
LeftLeg 1.492190 -0.000000 -0.000000
LeftFoot -15.484633 13.474116 -24.228191
LeftToeBase 8.658684 -0.000000 -0.000000
RightUpLeg 3.293114 -10.189610 -4.073089
RightLeg -3.538445 -0.000000 0.000000
RightFoot -16.796933 -17.382158 10.746246
RightToeBase 5.335750 -0.000000 -0.000000
1033
root -1.405272 31.852984 -6.592821 5.863144 16.755502 4.453299
Spine -7.813575 -0.224132 -3.237612
Head -1.436175 -16.884628 3.863678
LeftShoulder -9.457515 17.206174 5.091083
LeftArm 26.719153 40.315010 -69.001572
LeftForeArm -2.928591 -0.000000 14.695015
LeftHand -10.807037 -0.000000 -5.119099
LeftHandThumb1 -26.253704 0.000000 33.147579
RightShoulder 3.036062 30.210952 -32.786272
RightArm 52.551556 24.721916 102.166413
RightForeArm 22.910538 -0.000000 102.015642
RightHand -6.804171 0.000000 7.191329
RightHandThumb1 -24.326973 -0.000000 -32.862282
LeftUpLeg -2.515305 -6.969299 -1.225612
LeftLeg 1.490512 -0.000000 -0.000000
LeftFoot -15.490899 13.449425 -24.253225
LeftToeBase 8.697945 -0.000000 -0.000000
RightUpLeg 3.301143 -10.207523 -4.074422
RightLeg -3.542654 -0.000000 0.000000
RightFoot -16.781152 -17.382712 10.732060
RightToeBase 5.331428 -0.000000 -0.000000
